<!DOCTYPE svg PUBLIC "-//W3C//DTD SVG 1.1//EN" "http://www.w3.org/Graphics/SVG/1.1/DTD/svg11.dtd">
<!-- Uploaded to: SVG Repo, www.svgrepo.com, Transformed by: SVG Repo Mixer Tools -->
<svg fill="#fff" width="800px" height="800px" viewBox="0 0 32 32" version="1.1" xmlns="http://www.w3.org/2000/svg" stroke="#fff">
<g id="SVGRepo_bgCarrier" stroke-width="0"/>
<g id="SVGRepo_tracerCarrier" stroke-linecap="round" stroke-linejoin="round"/>
<g id="SVGRepo_iconCarrier"> <title>flower</title> <path d="M30.647 12.027c-2.674-1.718-5.326-2.759-8.158-2.618-0.044-2.996-1.096-5.655-2.618-8.158-2.421 1.562-4.886 3.073-6.347 5.756-2.791-1.516-5.583-1.939-8.374-1.811-0.002 2.791 0.341 5.583 1.811 8.374-2.788 1.681-4.25 4.025-5.756 6.347 2.602 1.461 5.232 2.778 8.158 2.618 0.105 2.719 1.204 5.439 2.618 8.158 2.459-1.644 4.706-3.457 6.347-5.756 2.611 1.505 5.434 1.95 8.374 1.812v0c0.131-3.012-0.299-5.855-1.811-8.374 2.521-1.342 4.388-3.523 5.756-6.347zM16.055 21.047c-2.916 0-5.279-2.364-5.279-5.28s2.364-5.28 5.279-5.28c2.916 0 5.279 2.364 5.279 5.28s-2.364 5.28-5.279 5.28z"/> </g>
</svg>