<!DOCTYPE svg PUBLIC "-//W3C//DTD SVG 1.1//EN" "http://www.w3.org/Graphics/SVG/1.1/DTD/svg11.dtd">
<!-- Uploaded to: SVG Repo, www.svgrepo.com, Transformed by: SVG Repo Mixer Tools -->
<svg width="800px" height="800px" viewBox="0 0 24 24" fill="none" xmlns="http://www.w3.org/2000/svg">
<g id="SVGRepo_bgCarrier" stroke-width="0"/>
<g id="SVGRepo_tracerCarrier" stroke-linecap="round" stroke-linejoin="round"/>
<g id="SVGRepo_iconCarrier"> <g clip-path="url(#clip0)"> <path d="M16.7454 19.83H3.63536C3.35481 19.8313 3.07675 19.7772 2.81717 19.6707C2.5576 19.5643 2.3216 19.4076 2.12276 19.2097C1.92391 19.0118 1.76612 18.7765 1.65845 18.5174C1.55078 18.2584 1.49536 17.9806 1.49536 17.7V9.08C1.49795 8.88189 1.5778 8.69263 1.7179 8.55253C1.85799 8.41244 2.04725 8.33259 2.24536 8.33H18.0754C18.2743 8.33 18.465 8.40902 18.6057 8.54967C18.7463 8.69032 18.8254 8.88109 18.8254 9.08V17.7C18.8255 18.2564 18.608 18.7907 18.2193 19.1887C17.8306 19.5868 17.3016 19.8169 16.7454 19.83ZM3.04536 9.83V17.7C3.04799 17.868 3.11657 18.0282 3.23631 18.1461C3.35605 18.264 3.51734 18.33 3.68536 18.33H16.7454C16.9124 18.33 17.0727 18.2636 17.1908 18.1455C17.309 18.0273 17.3754 17.8671 17.3754 17.7V9.83H3.04536Z" fill="#06dfb5"/> <path d="M13.0054 14.83C12.8065 14.83 12.6157 14.751 12.475 14.6103C12.3344 14.4697 12.2554 14.2789 12.2554 14.08V9.22L10.8954 5.67H1.06537L2.88537 8.67C2.94703 8.75406 2.99049 8.85006 3.01297 8.95187C3.03545 9.05367 3.03646 9.15904 3.01593 9.26126C2.9954 9.36347 2.95379 9.46028 2.89375 9.54551C2.83371 9.63075 2.75656 9.70252 2.66722 9.75626C2.57788 9.81001 2.47832 9.84453 2.3749 9.85764C2.27147 9.87074 2.16644 9.86214 2.06652 9.83238C1.96661 9.80262 1.87399 9.75236 1.79459 9.6848C1.71518 9.61724 1.65074 9.53386 1.60537 9.44L-0.894634 5.3C-0.963544 5.18705 -1 5.05731 -1 4.925C-1 4.79269 -0.963544 4.66294 -0.894634 4.55C-0.831848 4.43508 -0.739304 4.33916 -0.626702 4.2723C-0.514101 4.20545 -0.385588 4.17011 -0.254634 4.17H11.4154C11.5669 4.16994 11.7148 4.21577 11.8398 4.30145C11.9648 4.38713 12.0608 4.50865 12.1154 4.65L13.7454 8.81C13.7811 8.89541 13.7981 8.98746 13.7954 9.08V14.08C13.797 14.1824 13.7773 14.284 13.7377 14.3784C13.698 14.4727 13.6392 14.5579 13.565 14.6284C13.4907 14.6989 13.4026 14.7532 13.3063 14.7879C13.21 14.8226 13.1075 14.8369 13.0054 14.83Z" fill="#06dfb5"/> <path d="M18.0754 9.83H13.0754C12.9528 9.83065 12.8319 9.80084 12.7237 9.74324C12.6155 9.68564 12.5233 9.60206 12.4554 9.5C12.3848 9.39905 12.3413 9.28169 12.329 9.15913C12.3168 9.03657 12.3362 8.91292 12.3854 8.8L14.0454 4.64C14.1015 4.50052 14.1982 4.38113 14.3231 4.29732C14.4479 4.21351 14.595 4.16915 14.7454 4.17H19.7454C19.8679 4.16934 19.9888 4.19915 20.097 4.25676C20.2052 4.31436 20.2974 4.39794 20.3654 4.5C20.435 4.6012 20.4787 4.71796 20.4927 4.84002C20.5066 4.96208 20.4904 5.08569 20.4454 5.2L18.7454 9.36C18.6923 9.49556 18.6004 9.61245 18.4812 9.69605C18.3621 9.77965 18.2209 9.82624 18.0754 9.83ZM14.1854 8.33H17.5754L18.6354 5.67H15.2554L14.1854 8.33Z" fill="#06dfb5"/> </g> <defs> <clipPath id="clip0"> <rect width="24" height="24" fill="white"/> </clipPath> </defs> </g>
</svg>